<svg xmlns="http://www.w3.org/2000/svg" xmlns:xlink="http://www.w3.org/1999/xlink" viewBox="0 0 20 27.61"><defs><style>.cls-1{fill:none;}.cls-2{clip-path:url(#clip-path);}.cls-3{fill:#eb5b25;}.cls-4{clip-path:url(#clip-path-2);}.cls-5{fill:#fff;}</style><clipPath id="clip-path"><path class="cls-1" d="M10,0A10,10,0,0,0,0,10c0,6.84,9,16.89,9.33,17.31a.9.9,0,0,0,1.27.08l.07-.08C11.05,26.89,20,16.84,20,10A10,10,0,0,0,10,0Z"/></clipPath><clipPath id="clip-path-2"><polygon class="cls-1" points="6.38 7.22 6.38 17.67 9.5 17.67 9.5 14.74 10.01 14.23 16.97 22.85 21.19 22.85 12.7 12.49 16.46 7.22 12.21 7.22 9.5 10.87 9.5 7.22 6.38 7.22"/></clipPath></defs><g id="Capa_2" data-name="Capa 2"><g id="Capa_1-2" data-name="Capa 1"><g id="Grupo_4" data-name="Grupo 4"><g class="cls-2"><g id="Enmascarar_grupo_590" data-name="Enmascarar grupo 590"><path id="maps-and-flags-2" class="cls-3" d="M10,0A10,10,0,0,0,0,10c0,6.84,9,16.89,9.33,17.31a.9.9,0,0,0,1.27.08l.07-.08C11.05,26.89,20,16.84,20,10A10,10,0,0,0,10,0Z"/><g class="cls-4"><g id="Enmascarar_grupo_589" data-name="Enmascarar grupo 589"><path id="maps-and-flags-3" class="cls-5" d="M10,0A10,10,0,0,0,0,10c0,6.84,9,16.89,9.33,17.31a.9.9,0,0,0,1.27.08l.07-.08C11.05,26.89,20,16.84,20,10A10,10,0,0,0,10,0Z"/></g></g></g></g></g></g></g></svg>