<?xml version="1.0" encoding="UTF-8"?>
<svg xmlns="http://www.w3.org/2000/svg" xmlns:xlink="http://www.w3.org/1999/xlink" width="20pt" height="28pt" viewBox="0 0 16 22" version="1.1">
<defs>
<clipPath id="clip1">
  <path d="M 8 0.152344 C 3.582031 0.152344 0 3.671875 0 8.011719 C 0 13.382812 7.199219 21.28125 7.464844 21.609375 C 7.726562 21.902344 8.183594 21.933594 8.480469 21.675781 L 8.535156 21.609375 C 8.839844 21.28125 16 13.382812 16 8.011719 C 16 3.671875 12.417969 0.152344 8 0.152344 Z M 8 0.152344 "/>
</clipPath>
<clipPath id="clip2">
  <path d="M 5 5 L 16 5 L 16 19 L 5 19 Z M 5 5 "/>
</clipPath>
<clipPath id="clip3">
  <path d="M 8 0.152344 C 3.582031 0.152344 0 3.671875 0 8.011719 C 0 13.382812 7.199219 21.28125 7.464844 21.609375 C 7.726562 21.902344 8.183594 21.933594 8.480469 21.675781 L 8.535156 21.609375 C 8.839844 21.28125 16 13.382812 16 8.011719 C 16 3.671875 12.417969 0.152344 8 0.152344 Z M 8 0.152344 "/>
</clipPath>
<clipPath id="clip4">
  <path d="M 5.105469 5.824219 L 5.105469 14.035156 L 7.601562 14.035156 L 7.601562 11.734375 L 8.007812 11.332031 L 13.574219 18.105469 L 16.953125 18.105469 L 10.160156 9.964844 L 13.167969 5.824219 L 9.769531 5.824219 L 7.601562 8.695312 L 7.601562 5.824219 Z M 5.105469 5.824219 "/>
</clipPath>
</defs>
<g id="surface1">
<g clip-path="url(#clip1)" clip-rule="nonzero">
<path style=" stroke:none;fill-rule:nonzero;fill:rgb(92.156863%,35.686275%,14.509804%);fill-opacity:1;" d="M 8 0.152344 C 3.582031 0.152344 0 3.671875 0 8.011719 C 0 13.382812 7.199219 21.28125 7.464844 21.609375 C 7.726562 21.902344 8.183594 21.933594 8.480469 21.675781 L 8.535156 21.609375 C 8.839844 21.28125 16 13.382812 16 8.011719 C 16 3.671875 12.417969 0.152344 8 0.152344 Z M 8 0.152344 "/>
</g>
<g clip-path="url(#clip2)" clip-rule="nonzero">
<g clip-path="url(#clip3)" clip-rule="nonzero">
<g clip-path="url(#clip4)" clip-rule="nonzero">
<path style=" stroke:none;fill-rule:nonzero;fill:rgb(100%,100%,100%);fill-opacity:1;" d="M 8 0.152344 C 3.582031 0.152344 0 3.671875 0 8.011719 C 0 13.382812 7.199219 21.28125 7.464844 21.609375 C 7.726562 21.902344 8.183594 21.933594 8.480469 21.675781 L 8.535156 21.609375 C 8.839844 21.28125 16 13.382812 16 8.011719 C 16 3.671875 12.417969 0.152344 8 0.152344 Z M 8 0.152344 "/>
</g>
</g>
</g>
</g>
</svg>
