<svg xmlns="http://www.w3.org/2000/svg" xmlns:xlink="http://www.w3.org/1999/xlink" width="27" height="36.616" viewBox="0 0 27 36.616">
  <defs>
    <clipPath id="clip-path">
      <path id="Trazado_6780" data-name="Trazado 6780" d="M13.5.152A13.384,13.384,0,0,0,0,13.415c0,9.064,12.149,22.392,12.6,22.946a1.23,1.23,0,0,0,1.714.112l.092-.112C14.917,35.807,27,22.479,27,13.415A13.384,13.384,0,0,0,13.5.152Zm0,0" transform="translate(0 -0.152)"/>
    </clipPath>
    <clipPath id="clip-path-2">
      <path id="Trazado_6784" data-name="Trazado 6784" d="M5,5H23.563V28.625H5ZM5,5" transform="translate(-5 -5)"/>
    </clipPath>
    <clipPath id="clip-path-4">
      <path id="Trazado_6782" data-name="Trazado 6782" d="M5.105,5.824V19.68H9.318V15.8L10,15.119,19.4,26.549h5.7L13.635,12.812l5.076-6.987H12.976L9.318,10.669V5.824Zm0,0" transform="translate(-5.105 -5.824)"/>
    </clipPath>
  </defs>
  <g id="surface1" transform="translate(0 -0.152)">
    <g id="Grupo_7567" data-name="Grupo 7567" transform="translate(0 0.152)" clip-path="url(#clip-path)">
      <path id="Trazado_6779" data-name="Trazado 6779" d="M13.5.152A13.384,13.384,0,0,0,0,13.415c0,9.064,12.149,22.392,12.6,22.946a1.23,1.23,0,0,0,1.714.112l.092-.112C14.917,35.807,27,22.479,27,13.415A13.384,13.384,0,0,0,13.5.152Zm0,0" transform="translate(0 -0.152)" fill="#eb5b25"/>
    </g>
    <g id="Grupo_7570" data-name="Grupo 7570" transform="translate(8.438 8.333)" clip-path="url(#clip-path-2)">
      <g id="Grupo_7569" data-name="Grupo 7569" transform="translate(-8.438 -8.18)" clip-path="url(#clip-path)">
        <g id="Grupo_7568" data-name="Grupo 7568" transform="translate(8.615 9.571)" clip-path="url(#clip-path-4)">
          <path id="Trazado_6781" data-name="Trazado 6781" d="M13.5.152A13.384,13.384,0,0,0,0,13.415c0,9.064,12.149,22.392,12.6,22.946a1.23,1.23,0,0,0,1.714.112l.092-.112C14.917,35.807,27,22.479,27,13.415A13.384,13.384,0,0,0,13.5.152Zm0,0" transform="translate(-8.615 -9.724)" fill="#fff"/>
        </g>
      </g>
    </g>
  </g>
</svg>
