<?xml version="1.0" encoding="UTF-8"?>
<svg xmlns="http://www.w3.org/2000/svg" xmlns:xlink="http://www.w3.org/1999/xlink" width="20pt" height="28pt" viewBox="0 0 16 22" version="1.1">
<defs>
<clipPath id="clip1">
  <path d="M 5 5 L 13 5 L 13 15 L 5 15 Z M 5 5 "/>
</clipPath>
<clipPath id="clip2">
  <path d="M 7.996094 0 C 3.589844 0 0 3.574219 0 7.964844 C 0 13.417969 7.15625 21.425781 7.460938 21.757812 C 7.597656 21.910156 7.792969 21.996094 7.996094 21.996094 C 8.199219 21.996094 8.394531 21.910156 8.53125 21.757812 C 8.835938 21.421875 15.992188 13.417969 15.992188 7.964844 C 15.992188 3.574219 12.402344 0 7.996094 0 Z M 7.996094 0 "/>
</clipPath>
<clipPath id="clip3">
  <path d="M 11 1 L 16 1 L 16 8 L 11 8 Z M 11 1 "/>
</clipPath>
<clipPath id="clip4">
  <path d="M 7.996094 0 C 3.589844 0 0 3.574219 0 7.964844 C 0 13.417969 7.15625 21.425781 7.460938 21.757812 C 7.597656 21.910156 7.792969 21.996094 7.996094 21.996094 C 8.199219 21.996094 8.394531 21.910156 8.53125 21.757812 C 8.835938 21.421875 15.992188 13.417969 15.992188 7.964844 C 15.992188 3.574219 12.402344 0 7.996094 0 Z M 7.996094 0 "/>
</clipPath>
</defs>
<g id="surface1">
<path style=" stroke:none;fill-rule:nonzero;fill:rgb(0%,4.705882%,47.843137%);fill-opacity:1;" d="M 7.996094 0 C 3.589844 0 0 3.574219 0 7.964844 C 0 13.417969 7.15625 21.425781 7.460938 21.757812 C 7.597656 21.910156 7.792969 21.996094 7.996094 21.996094 C 8.199219 21.996094 8.394531 21.910156 8.53125 21.757812 C 8.835938 21.421875 15.992188 13.417969 15.992188 7.964844 C 15.992188 3.574219 12.402344 0 7.996094 0 Z M 7.996094 0 "/>
<g clip-path="url(#clip1)" clip-rule="nonzero">
<g clip-path="url(#clip2)" clip-rule="nonzero">
<path style=" stroke:none;fill-rule:nonzero;fill:rgb(100%,100%,100%);fill-opacity:1;" d="M 11.671875 13.160156 C 12.285156 13.757812 11.996094 14.03125 11.378906 14.03125 L 10.691406 14.03125 C 10.429688 14.03125 10.167969 13.910156 9.953125 13.695312 L 7.050781 10.640625 L 6.695312 11.082031 L 6.683594 13.359375 C 6.683594 13.789062 6.464844 14.03125 5.988281 14.03125 L 5.714844 14.03125 C 5.269531 14.03125 5.054688 13.789062 5.054688 13.359375 L 5.054688 6.453125 C 5.054688 6.007812 5.269531 5.792969 5.730469 5.792969 L 5.988281 5.792969 C 6.480469 5.792969 6.683594 5.976562 6.683594 6.453125 L 6.683594 8.699219 L 9.277344 6.007812 C 9.445312 5.839844 9.570312 5.792969 9.753906 5.792969 L 10.828125 5.792969 C 11.378906 5.792969 11.441406 6.101562 10.890625 6.636719 L 8.203125 9.445312 Z M 11.671875 13.160156 "/>
</g>
</g>
<g clip-path="url(#clip3)" clip-rule="nonzero">
<g clip-path="url(#clip4)" clip-rule="nonzero">
<path style=" stroke:none;fill-rule:nonzero;fill:rgb(100%,71.764706%,6.666667%);fill-opacity:1;" d="M 33.390625 5.679688 C 33.359375 5.652344 33.332031 5.625 33.304688 5.597656 C 32.027344 4.242188 30.242188 3.207031 28.507812 2.589844 C 26.636719 1.925781 24.65625 1.625 22.667969 1.707031 L 22.660156 1.707031 C 19.015625 1.753906 15.238281 2.96875 12.023438 5.136719 L 11.9375 5.195312 C 11.9375 5.195312 11.933594 5.199219 11.929688 5.199219 L 11.925781 5.203125 L 11.925781 5.207031 C 11.816406 5.285156 11.769531 5.417969 11.796875 5.546875 C 11.828125 5.675781 11.929688 5.773438 12.0625 5.796875 C 12.136719 5.808594 12.210938 5.796875 12.277344 5.761719 C 12.28125 5.761719 12.285156 5.757812 12.285156 5.757812 C 15.546875 3.816406 19.308594 2.882812 22.835938 3.125 C 26.089844 3.359375 29.34375 4.632812 31.792969 7.097656 C 31.828125 7.136719 31.867188 7.175781 31.910156 7.210938 C 32.4375 7.660156 33.175781 7.664062 33.5625 7.222656 C 33.925781 6.800781 33.855469 6.125 33.390625 5.679688 "/>
</g>
</g>
</g>
</svg>
