<svg id="surface1" xmlns="http://www.w3.org/2000/svg" xmlns:xlink="http://www.w3.org/1999/xlink" width="27" height="37.118" viewBox="0 0 27 37.118">
  <defs>
    <clipPath id="clip-path">
      <path id="Trazado_6780" data-name="Trazado 6780" d="M5,5H18.5V21.875H5ZM5,5" transform="translate(-5 -5)"/>
    </clipPath>
    <clipPath id="clip-path-2">
      <path id="Trazado_6779" data-name="Trazado 6779" d="M13.493,0A13.487,13.487,0,0,0,0,13.441c0,9.2,12.076,22.715,12.59,23.276a1.215,1.215,0,0,0,1.806,0c.514-.567,12.59-14.073,12.59-23.276A13.487,13.487,0,0,0,13.493,0Zm0,0"/>
    </clipPath>
    <clipPath id="clip-path-3">
      <path id="Trazado_6783" data-name="Trazado 6783" d="M11,1h8.438V12.813H11Zm0,0" transform="translate(-11 -1)"/>
    </clipPath>
  </defs>
  <path id="Trazado_6777" data-name="Trazado 6777" d="M13.493,0A13.487,13.487,0,0,0,0,13.441c0,9.2,12.076,22.715,12.59,23.276a1.215,1.215,0,0,0,1.806,0c.514-.567,12.59-14.073,12.59-23.276A13.487,13.487,0,0,0,13.493,0Zm0,0" fill="#000c7a"/>
  <g id="Grupo_7566" data-name="Grupo 7566" transform="translate(8.438 8.438)" clip-path="url(#clip-path)">
    <g id="Grupo_7565" data-name="Grupo 7565" transform="translate(-8.438 -8.438)" clip-path="url(#clip-path-2)">
      <path id="Trazado_6778" data-name="Trazado 6778" d="M16.221,18.225c1.035,1.009.547,1.47-.494,1.47h-1.16a1.787,1.787,0,0,1-1.246-.567l-4.9-5.155-.6.745L7.8,18.561A1.023,1.023,0,0,1,6.63,19.7H6.169a1,1,0,0,1-1.114-1.134V6.907c0-.751.363-1.114,1.14-1.114H6.63c.831,0,1.173.31,1.173,1.114V10.7L12.18,6.156a1.009,1.009,0,0,1,.8-.363H14.8c.929,0,1.035.521.105,1.424l-4.535,4.739Zm0,0" transform="translate(3.475 3.983)" fill="#fff"/>
    </g>
  </g>
  <g id="Grupo_7568" data-name="Grupo 7568" transform="translate(18.563 1.688)" clip-path="url(#clip-path-3)">
    <g id="Grupo_7567" data-name="Grupo 7567" transform="translate(-18.563 -1.688)" clip-path="url(#clip-path-2)">
      <path id="Trazado_6781" data-name="Trazado 6781" d="M48.242,8.42c-.053-.046-.1-.092-.145-.138A21.042,21.042,0,0,0,40,3.206a26.22,26.22,0,0,0-9.855-1.49h-.013A33.341,33.341,0,0,0,12.184,7.5l-.145.1a.023.023,0,0,1-.013.007l-.007.007v.007a.553.553,0,0,0,.231,1,.576.576,0,0,0,.363-.059.023.023,0,0,0,.013-.007,31.151,31.151,0,0,1,17.8-4.443,23.579,23.579,0,0,1,15.115,6.7,1.816,1.816,0,0,0,.2.191,2,2,0,0,0,2.788.02,1.908,1.908,0,0,0-.29-2.6" transform="translate(8.105 1.165)" fill="#ffb711"/>
    </g>
  </g>
</svg>
