<?xml version="1.0" encoding="utf-8"?>
<!-- Generator: Adobe Illustrator 25.2.1, SVG Export Plug-In . SVG Version: 6.00 Build 0)  -->
<svg version="1.1" id="Capa_1" xmlns="http://www.w3.org/2000/svg" xmlns:xlink="http://www.w3.org/1999/xlink" x="0px" y="0px"
	 viewBox="0 0 20 28" style="enable-background:new 0 0 20 28;" xml:space="preserve">
<style type="text/css">
	.st0{clip-path:url(#SVGID_2_);}
	.st1{fill:#004691;}
	.st2{clip-path:url(#SVGID_4_);}
	.st3{clip-path:url(#SVGID_6_);}
	.st4{clip-path:url(#SVGID_8_);}
	.st5{fill:#FFFFFF;}
</style>
<g id="surface1">
	<g>
		<defs>
			<path id="SVGID_1_" d="M10,0.4c-5.5,0-10,4.4-10,9.8c0,6.7,9,16.6,9.3,17c0.3,0.4,0.9,0.4,1.3,0.1l0.1-0.1C11,26.9,20,17,20,10.3
				C20,4.8,15.5,0.4,10,0.4z"/>
		</defs>
		<clipPath id="SVGID_2_">
			<use xlink:href="#SVGID_1_"  style="overflow:visible;"/>
		</clipPath>
		<g class="st0">
			<path class="st1" d="M10,0.4c-5.5,0-10,4.4-10,9.8c0,6.7,9,16.6,9.3,17c0.3,0.4,0.9,0.4,1.3,0.1l0.1-0.1C11,26.9,20,17,20,10.3
				C20,4.8,15.5,0.4,10,0.4z"/>
		</g>
	</g>
	<g>
		<defs>
			<rect id="SVGID_3_" x="6.2" y="6.5" width="13.8" height="17.5"/>
		</defs>
		<clipPath id="SVGID_4_">
			<use xlink:href="#SVGID_3_"  style="overflow:visible;"/>
		</clipPath>
		<g class="st2">
			<g>
				<defs>
					<path id="SVGID_5_" d="M10,0.4c-5.5,0-10,4.4-10,9.8c0,6.7,9,16.6,9.3,17c0.3,0.4,0.9,0.4,1.3,0.1l0.1-0.1
						C11,26.9,20,17,20,10.3C20,4.8,15.5,0.4,10,0.4z"/>
				</defs>
				<clipPath id="SVGID_6_">
					<use xlink:href="#SVGID_5_"  style="overflow:visible;"/>
				</clipPath>
				<g class="st3">
					<g>
						<defs>
							<polygon id="SVGID_7_" points="6.4,7.5 6.4,17.8 9.5,17.8 9.5,14.9 10,14.4 17,22.9 21.2,22.9 12.7,12.7 16.5,7.5 12.2,7.5 
								9.5,11.1 9.5,7.5 							"/>
						</defs>
						<clipPath id="SVGID_8_">
							<use xlink:href="#SVGID_7_"  style="overflow:visible;"/>
						</clipPath>
						<g class="st4">
							<path class="st5" d="M10,0.4c-5.5,0-10,4.4-10,9.8c0,6.7,9,16.6,9.3,17c0.3,0.4,0.9,0.4,1.3,0.1l0.1-0.1
								C11,26.9,20,17,20,10.3C20,4.8,15.5,0.4,10,0.4z"/>
						</g>
					</g>
				</g>
			</g>
		</g>
	</g>
</g>
</svg>
