<svg xmlns="http://www.w3.org/2000/svg" xmlns:xlink="http://www.w3.org/1999/xlink" width="16" height="21.698" viewBox="0 0 16 21.698">
  <defs>
    <clipPath id="clip-path">
      <path id="Trazado_6355" data-name="Trazado 6355" d="M8,.152A7.931,7.931,0,0,0,0,8.012c0,5.371,7.2,13.27,7.465,13.6a.729.729,0,0,0,1.016.066l.055-.066C8.84,21.281,16,13.383,16,8.012A7.931,7.931,0,0,0,8,.152Zm0,0"/>
    </clipPath>
    <clipPath id="clip-path-2">
      <path id="Trazado_6359" data-name="Trazado 6359" d="M5,5H16V19H5ZM5,5"/>
    </clipPath>
    <clipPath id="clip-path-4">
      <path id="Trazado_6357" data-name="Trazado 6357" d="M5.105,5.824v8.211H7.6v-2.3l.406-.4,5.566,6.773h3.379L10.16,9.965l3.008-4.141H9.77L7.6,8.7V5.824Zm0,0"/>
    </clipPath>
  </defs>
  <g id="surface1" transform="translate(0 -0.152)">
    <g id="Grupo_7591" data-name="Grupo 7591" clip-path="url(#clip-path)">
      <path id="Trazado_6354" data-name="Trazado 6354" d="M8,.152A7.931,7.931,0,0,0,0,8.012c0,5.371,7.2,13.27,7.465,13.6a.729.729,0,0,0,1.016.066l.055-.066C8.84,21.281,16,13.383,16,8.012A7.931,7.931,0,0,0,8,.152Zm0,0" fill="#004691"/>
    </g>
    <g id="Grupo_7594" data-name="Grupo 7594" clip-path="url(#clip-path-2)">
      <g id="Grupo_7593" data-name="Grupo 7593" clip-path="url(#clip-path)">
        <g id="Grupo_7592" data-name="Grupo 7592" clip-path="url(#clip-path-4)">
          <path id="Trazado_6356" data-name="Trazado 6356" d="M8,.152A7.931,7.931,0,0,0,0,8.012c0,5.371,7.2,13.27,7.465,13.6a.729.729,0,0,0,1.016.066l.055-.066C8.84,21.281,16,13.383,16,8.012A7.931,7.931,0,0,0,8,.152Zm0,0" fill="#fff"/>
        </g>
      </g>
    </g>
  </g>
</svg>
